<svg xmlns="http://www.w3.org/2000/svg" width="53.053" height="56.029" viewBox="0 0 53.053 56.029"><g transform="translate(-4633.443 -1650.208)"><path d="M5043.751,2050.28v-3.817h.927v-1.894h.9v-2.855h.926v-.932h.9v-1.894h.927v-.962h.9v-.932h.926v-.962h.927v-.962h.9v-.932h1.824v-.962h1.854v-.932h3.649v.932h.9v.962h.926v.932h2.751v.962h7.3v-.962h1.854v-.932h1.824v-.962h.9v-.932h2.751v.932h2.751v.962h1.824v.932H5084v.962h.9v.962h.926v.932h.9v1.894h.927v.962h.927v1.894h.9v2.855h.927v2.855h.9v4.719h-10.049v-5.681h-1.825v5.681h-23.775v-5.681H5053.8v5.681h-10.976v-2.825Zm14.625-43.675v-.962h.927v-.932h.9v-.962h.926v-.932h1.825v-.962h1.824v-.962h4.576v.962h2.751v.962h1.825v.932h.926v.962h.9v.932h.927v2.856h.927v7.6h-.927V2018h-.927v.962h-.9v.932h-.926v.962h-.9v.932h-.927v.962h-2.751v.932h-4.576v-.932h-1.824v-.962h-1.825v-.932h-.926v-.962h-.9v-.932h-.927V2018h1.825v.962h4.575v.932h.927v.962h2.751v-.962h.9v-2.856H5065.7V2018h-2.751v-.962H5060.2v-.932h-1.825v-.962h-.9v-.932h-.926v-4.749h.926V2006.6Zm3.678-6.643v.932H5060.2v.962h-.9v.962h-.927v.932h-.9v.962h-.926v.932h-.9v1.894h-.927v.962h-.927v.962h-.9v.932h-.927v3.817h.927v.932h.9v.962h1.854v2.856h.9v.932h.926v.962h.9v.932h.927v.962h.9v.932h1.853v.962h2.722v.962h5.5v-.962h2.751v-.962h1.824v-.932h.9v-.962h.927v-.932h.927v-1.894h.9v-1.924h.927v-.932h1.825v-.962h.9v-1.894h.927v-1.894h-.927v-1.894h-.9v-.962h-1.825V2006.6h-.927v-.962h-.9v-1.894h-.927v-.932h-.927v-.962h-.9v-.962h-1.824v-.932h-2.751V1999h-6.4v.962Zm-9.151,31.321v.962h-1.825v.932h-.927v.962h-.926v.932h-.9v.962h-.927v.962h-.9v.932h-.926v1.894h-.9v.962h-.927v2.856h-.927v1.894h-.9v4.749H5041v4.749h53.053v-2.855h-.927v-4.749h-.9v-2.856h-.927v-2.855h-.9v-1.894h-.927v-.932h-.9v-1.894h-.927v-.962h-.927v-.962h-.9v-.932h-.926v-.962h-.9v-.932h-1.854v-.962h-2.722v-.962h-4.576v.962h-.926v.962H5072.1v.932h-1.824v.962h-5.5v-.962h-1.824v-.932h-1.825v-.962h-.926v-.962h-5.474v.962Z" transform="translate(-407.557 -348.792)" fill="#009fe3" fill-rule="evenodd"/></g></svg>