<svg id="_348419440" xmlns="http://www.w3.org/2000/svg" width="59.871" height="75" viewBox="0 0 59.871 75">
  <path id="Trazado_21" data-name="Trazado 21" d="M6929.023,4980.472v-1.287h2.736v-1.448h5.472v1.448h1.449v2.736h1.287v1.287h1.288v1.448h1.449v1.288h1.287v1.448h4.185v1.288h14.968v-1.288h2.736v-1.448h1.288v-1.288h1.449v-1.448h1.287v-1.287h1.448v-1.449h1.288v-1.287h8.208v1.287h1.288v50.537h-1.288v1.287h-51.824v-1.287h-1.287v-50.537Zm39.593-3.379v3.379h-1.449v1.449h-1.288v1.287h-1.448v1.448H6961.7v1.288h-13.52v-1.288h-2.736v-1.448h-1.449v-1.287H6942.7v-1.449h-1.449v-2.735h-1.288V4975h-9.5v1.448h-2.736v1.288h-1.449v1.448H6925V5032.3h1.288v1.449h1.449v1.288h54.4v-1.288h1.449V5032.3h1.287v-53.111h-1.287v-1.448h-1.449v-.805Z" transform="translate(-6925 -4960.032)" fill="#009fe3" fill-rule="evenodd"/>
  <path id="Trazado_22" data-name="Trazado 22" d="M7022.023,5110.463v-1.448h1.449v-1.288h1.287v-1.288h1.448v1.288h2.736v1.288h8.208v-1.288h2.575v-1.288h2.737v1.288h1.448v2.736h1.287v5.472h-1.287v1.288h-2.736v1.448H7024.76v-1.448h-2.736v-1.288h-1.288v-5.472Zm1.449-6.759v1.287h-1.449v1.449h-1.288v1.288h-1.448v1.288H7018v8.208h1.288v1.448h1.448v1.287h4.024v1.449h16.416v-1.449h5.472v-1.287h1.288v-9.657h-1.288v-2.575H7045.2v-1.449h-1.287V5103.7h-4.185v-1.449h1.449v-2.736h1.288v-8.208h-1.288v-1.288h-1.449v-1.449h-1.287v-1.288H7035.7V5086h-5.472v1.288H7027.5v1.288h-1.288v1.449h-1.448v2.736h-1.287v6.76h1.287v1.448h1.448v1.288h1.288v1.449h1.448v1.287H7027.5V5103.7Zm4.023-9.657v-2.736h1.448v-1.288h2.736v-1.449h4.023v1.449h1.449v1.288h1.288v1.448h1.287v6.76h-1.287v1.448h-1.288v1.288h-6.921v-1.288h-1.287v-1.448H7027.5v-1.288h-1.288v-4.185Z" transform="translate(-7003.032 -5053.167)" fill="#009fe3" fill-rule="evenodd"/>
  <path id="Trazado_23" data-name="Trazado 23" d="M7073.023,4886.185v-1.448h5.473v1.448h1.448v16.255h-6.921v-1.288h-1.287v-14.968Zm-1.287-2.736h-1.448v1.288H7069v19.152h1.288v1.287h10.944v-1.287h1.288v-19.152h-1.288v-1.288h-1.288V4882h-8.208Z" transform="translate(-7045.824 -4882)" fill="#009fe3" fill-rule="evenodd"/>
  <path id="Trazado_24" data-name="Trazado 24" d="M7264,5316.736h1.288v-1.288h1.288V5314h-1.288v1.448H7264Z" transform="translate(-7209.44 -5244.472)" fill="#009fe3" fill-rule="evenodd"/>
</svg>
