<svg xmlns="http://www.w3.org/2000/svg" width="59.303" height="69.557" viewBox="0 0 59.303 69.557">
  <g id="Capa_x0020_1" transform="translate(-6983 -4760.711)">
    <g id="_351412080" transform="translate(6983 4760.711)">
      <path id="Trazado_15" data-name="Trazado 15" d="M7421.6,4905.12c.64.284.5-.355.5,2.986-.071,3.911.426,7.181-.853,10.1-1,1.991-4.2,8.105-4.55,9.812h5.4c-.071,3.626,0,7.181,0,10.807,0,3.413-1.066,8.177,3.057,7.963,3.2-.142,2.347-3.342,2.347-8.248v-9.6c.355-1.635,1.422-1.351,1.351,1.066v13.723c0,1.848.356,2.986,2.346,3.057,4.195.285,3.058-4.195,3.058-7.679v-11.02l5.19-.071c-.213-1.422-3.484-8.034-4.337-9.812-1.208-2.63-1-8.46-.853-11.8,0-1.351-.213-.924.5-1.279.853.355.5,3.128.5,5.19a41.639,41.639,0,0,0,.071,5.972,2.153,2.153,0,0,0,3.555,1.138c1-1,.711-3.626.711-5.19,0-11.945.924-12.229-11.447-12.229-12.3,0-11.447.285-11.447,12.229,0,1.778-.925,6.257,2.844,5.617,2.346-.427,1.635-3.626,1.635-7.324C7421.171,4908.888,7420.815,4905.546,7421.6,4905.12Z" transform="translate(-7385.764 -4890.097)" fill="#009fe3" fill-rule="evenodd"/>
      <path id="Trazado_16" data-name="Trazado 16" d="M7066.059,4927.4h.782c.569,1.564.071,17.419.142,21.473.071,1.564.355,2.417,1.707,2.773,3.839.924,3.555-1.849,3.555-4.764v-17.562l.072-16.424c.284-.854-.285-.355.569-.711l.213.427c.569,2.062-.284,15.073.426,16.424.64,1.28,3.2,1.28,3.768-.213.427-1.138.214-9.386.214-11.305,0-11.874,1.138-12.016-11.163-12.016-3.2,0-8.6-.426-10.238,1.564-1.422,1.707-.854,8.035-.854,10.736,0,2.133-.5,10.238.427,11.447a2.219,2.219,0,0,0,3.768-.782c.569-2.346-.711-16.921.711-16.282.568.355.355,31.284.355,34.413-.071,1.777-.426,4.053,1,4.834,1.351.782,3.7.427,4.124-1.138C7066.2,4947.874,7065.063,4928.748,7066.059,4927.4Z" transform="translate(-7049.99 -4895.168)" fill="#009fe3" fill-rule="evenodd"/>
      <path id="Trazado_17" data-name="Trazado 17" d="M7151,4763.961c-5.9,2.417-2.133,11.375,3.342,9.03C7159.741,4770.645,7156.826,4761.615,7151,4763.961Z" transform="translate(-7136.278 -4763.372)" fill="#009fe3" fill-rule="evenodd"/>
      <path id="Trazado_18" data-name="Trazado 18" d="M7515.592,4761.017c-5.9,2.275-2.56,11.02,3.342,8.958a4.862,4.862,0,0,0,2.7-6.115A4.722,4.722,0,0,0,7515.592,4761.017Z" transform="translate(-7474.852 -4760.711)" fill="#009fe3" fill-rule="evenodd"/>
      <path id="Trazado_19" data-name="Trazado 19" d="M7009.094,5392.75c.854-3.626,1.209-4.409.5-8.177-1.208-6.328-5.617-4.55-8.39-7.395a22.488,22.488,0,0,0-2.56-2.63c-.853-.64-1.849-1.92-3.768-1.707-.356,1.208,1.138,2.489,1.493,2.986a2.61,2.61,0,0,1-1.422-1c-.924-.711-2.346-2.417-3.413-3.413-.853-.71-1.564-1.422-2.417-2.2-1.137-1.066-1.351-1.707-2.56-1.991-1.067-.285-.782-.569-1.707-.782-.924-.142-1.778.071-1.849.64l1.564,2.7c1.208,1.777,3.484,4.337,4.905,6.185a3.907,3.907,0,0,1,.925,1.28c1,2.275,2.56,3.057,4.622,4.551,3.911,2.772,4.479,3.057,5.475,7.75.5,2.275.711.782.071,3.057Z" transform="translate(-6983 -5323.336)" fill="#009fe3" fill-rule="evenodd"/>
      <path id="Trazado_20" data-name="Trazado 20" d="M7460.847,5367.547a49.109,49.109,0,0,1-4.337,4.195c-1,.924-3.484,3.911-4.55,4.124a2.893,2.893,0,0,1,.64-.711,3.15,3.15,0,0,0,.853-2.275,3.583,3.583,0,0,0-3.128,1.208,12.433,12.433,0,0,0-2.062,1.849,10.542,10.542,0,0,1-1.991,1.991c-1.919,1.28-6.115,1.493-7.11,5.048a16.612,16.612,0,0,0-.71,6.185c.071,1.992.426,3.342.426,3.769l8.532-.072c-.782-2.63.071-2.844.925-5.332a6.612,6.612,0,0,1,2.062-3.626c1-.782,2.417-1.777,3.484-2.489,3.413-2.2,2.916-2.417,4.266-4.55.569-.924,4.124-4.906,5.19-6.47l1.138-1.707a3.323,3.323,0,0,1,.355-.711c.143-.213.355-.426.427-.568.426-.64-1-1.564-2.773-.427A11.079,11.079,0,0,1,7460.847,5367.547Z" transform="translate(-7406.028 -5323.373)" fill="#009fe3" fill-rule="evenodd"/>
    </g>
  </g>
</svg>
