<svg xmlns="http://www.w3.org/2000/svg" width="74.942" height="62.751" viewBox="0 0 74.942 62.751">
  <g id="Capa_x0020_1" transform="translate(-8422 -3493)">
    <g id="_403871656" transform="translate(8422 3493)">
      <path id="Trazado_4" data-name="Trazado 4" d="M8566.22,3692.487v-1.076h1.076v-.956h.956v.956h1.075v2.032h-1.075v.956h-2.032v-.956h-.956v-.956Zm-5.021,0v.956h-2.031v-.956h-.956v-3.108h.956v-.956h-.956v.956h-1.076v1.076H8555.1v-1.076h-.956v-2.988h-1.075v.956h-2.032v-.956h-.956v-3.107h-4.063v-.956h-.957v-1.076h.957v-2.032h1.075v-.956h.956v-.956h2.988v.956h1.075v2.032h2.988v.956h1.076v3.108H8555.1v.956h-.956v1.075h.956v-1.075h1.076v-.956h.956v-1.076h3.107v4.064h-1.075v1.076h1.075v-1.076h.956v-.956h2.032v.956h1.075v3.108h-1.075v.956h-.955v1.076Zm-4.063-37.531h-5.021v1.076h-2.987v.956H8547.1v1.076h-1.075v4.064h3.107v-1.076h1.912v-.956h6.1v.956h-.956v1.076H8555.1v.956h-.956v.956h-1.075v1.076h-.957v.956h-1.075v5.14h1.075v.956h2.032v1.076h6.1v-1.076h2.988v-.956h1.075v-1.076h1.913v-.956h2.032v.956h1.075v1.076h.956v.956h1.076v1.076h2.031v.957h.957v1.075h1.075v.956h.957v1.075h1.075v.956h.956v.956h1.075v1.076h.957v.956h.957v2.032h-.957v1.076h-2.988v-1.076h-1.075v-.956h-.957v-1.076h-1.075v-.956h-2.032v-1.076h-.956v-.956h-1.076v.956h1.076v1.076h.956v.956h1.075v1.076h2.032v.956h.957v1.076h1.075v2.032h-1.075v.956h-2.989v-.956h-1.075v-1.075h-.956v1.075h.956v.956h1.075v2.032h-1.075v1.076h-2.988v-1.076h-1.075v-.956h-.956v-3.107h-1.076v-.956h-2.988v-1.076h-.955v-.956H8561.2v-1.076h-.956v-.956h-2.031v-1.076h-1.076v-.956h-.956v-.956h-2.032v-1.075h-1.075v-.956h-.957V3674.2h-5.02v1.075h-2.032V3674.2h-3.107v3.107H8541v.956h2.032v6.1h.956v.956h1.075v1.075h2.032v.956h.956v1.076h1.076v.956h1.912v1.076h1.075v.956h.957v1.076h2.031v.956h1.076v.956h.956v1.076h2.032v.956h5.139v1.076h5.021v-1.076h.956v-.956h1.076V3694.4h2.031v-.956h.957v-.956h1.075v-1.076h.957v-.956h2.031v-1.076h1.075v-.956h.957v-1.076h2.031v-.956h.957v-1.075h1.075v-6.1h2.033v-5.02h-2.033v1.075h-2.032v.956H8581.4v-.956h-.957V3674.2h-.957v-.957h-1.075v-1.076h-.956v-.956h-1.075v-1.076h-.957v-.956h-2.032V3668.1h-1.075v-.956h-.956v-1.076h-1.076v-.956h-.956v-1.076h-4.063v1.076h-.957v.956h-2.03v1.076H8561.2v.956h-2.987v1.076h-2.032v-2.032h2.032v-1.076h.956v-.956h1.075v-1.076h.956v-.956h1.077v-.956h.955v-1.076h1.075v-.956h.957v-1.076h.956v-.956h2.032v.956h2.031v1.076h2.032v.956h2.032v1.076h3.107v.956h5.02v-4.064h-2.988v-.956h-3.106v-1.076h-2.032v-.956h-2.032v-1.076h-2.032V3654h-7.052v.956h-.955v1.076H8561.2v.956h-2.031v-.956h-2.032Z" transform="translate(-8526.776 -3634.756)" fill="#009fe3" fill-rule="evenodd"/>
      <path id="Trazado_5" data-name="Trazado 5" d="M8916.108,3654.956v1.076H8913v4.064h1.076v3.944h.956v3.108h1.076v4.064h.956v4.064h1.075v3.944h5.021v-.956h4.063v-.956h2.032v-2.032h-1.076v-4.064h-.956v-4.064h-1.075v-4.064h-.956v-4.064h-1.076v-4.064h-.956V3654h-2.988v.956Z" transform="translate(-8854.313 -3634.756)" fill="#009fe3" fill-rule="evenodd"/>
      <path id="Trazado_6" data-name="Trazado 6" d="M8426.064,3658.064v4.064h-.957v3.944h-1.076v4.064h-.957v4.064H8422v3.107h2.031v.956h4.064v.956h4.063v-.956h.957V3674.2h1.076v-4.064h.957v-4.064h1.074v-2.988h.957v-4.064h1.076v-2.988h-3.107v-1.076h-4.064V3654h-3.945v4.064Z" transform="translate(-8422 -3634.756)" fill="#009fe3" fill-rule="evenodd"/>
      <path id="Trazado_7" data-name="Trazado 7" d="M8575.957,3521.108h1.074v2.032h.956v2.032h1.077v.956h2.987V3524.1h-1.075v-2.032h-.956v-.956h-.956v-2.032h-1.077V3518h-2.03v1.076H8575v.956h.957Z" transform="translate(-8556.713 -3515.012)" fill="#009fe3" fill-rule="evenodd"/>
      <path id="Trazado_8" data-name="Trazado 8" d="M8680.064,3500.052h-.957V3493H8676v5.02h1.075v4.064h2.989Z" transform="translate(-8645.64 -3493)" fill="#009fe3" fill-rule="evenodd"/>
      <path id="Trazado_9" data-name="Trazado 9" d="M8761,3499.1v2.988h2.987v-5.02h1.076V3493h-3.107v6.1Z" transform="translate(-8720.481 -3493)" fill="#009fe3" fill-rule="evenodd"/>
      <path id="Trazado_10" data-name="Trazado 10" d="M8838.075,3522.064v2.032H8837v2.032h1.075v1.076h.956v-1.076h1.076V3524.1h.956v-2.032h.956v-.956h1.076v-2.032h-1.076V3518h-1.912v2.032h-1.076v2.032Z" transform="translate(-8787.397 -3515.012)" fill="#009fe3" fill-rule="evenodd"/>
      <path id="Trazado_11" data-name="Trazado 11" d="M8766.02,3898.052h1.076v-2.032h-1.076v-.956h-.956v-2.032h-1.076v-1.076h-.956V3891H8761v.956h.956v1.076h1.075v.956h.956v1.076h1.076v.956h.956Z" transform="translate(-8720.481 -3843.429)" fill="#009fe3" fill-rule="evenodd"/>
      <path id="Trazado_12" data-name="Trazado 12" d="M8609,3876.988h1.912v-.956h1.076v-1.076h.957V3874h-2.033v.957h-.957v1.076H8609Z" transform="translate(-8586.649 -3828.461)" fill="#009fe3" fill-rule="evenodd"/>
    </g>
  </g>
</svg>
