<svg xmlns="http://www.w3.org/2000/svg" width="57.173" height="57.173" viewBox="0 0 57.173 57.173">
  <path id="Trazado_25" data-name="Trazado 25" d="M6908.963,5850.78h1.293v1.149h1.149v1.293h1.293v1.149h1.149v1.293h1.293v1.149h1.148v1.292h1.293v1.149h1.149v2.442h-1.149v1.293h-2.441V5861.7h-1.293v-1.149H6912.7v-1.293h-1.293v-1.149h-1.149v-1.292h-1.293v-1.149h-1.149v-1.293h-1.292v-1.149h-1.149v-3.735h3.591Zm-15.8,3.591h8.619v-1.149h1.149v1.149h1.149v1.293h1.293v1.149h1.149v1.292h1.292v1.149h1.149v1.293h1.293v1.149h1.149v1.293h1.293v1.149h1.149v2.442h-14.509v-1.149h-4.885v-1.293h-2.441v-1.149h-2.442V5861.7h-2.442v-1.149h-2.442v-1.293h-1.148v-1.149h-1.293v-1.292h-1.149v-1.149H6879.8v-1.293h-1.149v-1.149h-1.293v-1.293h-1.148v-1.149h-1.293v-2.442h-1.149v-1.149h-1.293v-2.441h-1.148v-2.442h-1.293v-2.442h-1.149v-4.884h-1.293v-14.652h2.442v1.293h1.293v1.149h1.148v1.293h1.293v1.149h1.149v1.293h1.293v1.149h1.148v1.293h1.293v1.149h1.149v1.149h1.293v1.293H6879.8v8.475h1.293v1.293h1.149v1.149h1.293v1.293h1.148v1.149h1.149v1.292h1.293v1.149h1.149v1.149h1.293v1.293h1.149v1.149h1.293v1.293h1.148Zm-21.834-37.636v-1.293h3.591v1.293h1.293v1.149h1.148v1.293h1.293v1.149h1.149v1.293h1.293v1.149h1.149v1.293h1.293v1.149h1.148v2.442h-1.148v1.293h-2.442v-1.293H6879.8V5826.5h-1.149v-1.293h-1.293v-1.149h-1.148v-1.293h-1.293v-1.149h-1.149v-1.293h-1.293v-1.149h-1.148v-1.293h-1.293v-1.149Zm-2.442-2.442v1.149h-1.293v1.293h-1.149v1.149h-1.149v4.884H6864v8.476h1.293v6.177h1.149v3.591h1.149v3.735h1.293v2.441h1.149v1.149h1.293v2.442h1.148v2.442h1.293v1.149h1.149v1.293h1.293v1.149h1.148v1.292h1.293v1.149h1.149v1.293h2.442v1.149h1.293v1.293h2.3v1.149h1.293v1.293h2.442v1.149h3.591v1.149h3.735v1.293h4.884v1.149H6912.7v-1.149h2.442v-1.293h2.441v-1.149h1.149v-1.149h1.293v-1.293h1.148v-6.034h-1.148v-1.292h-1.293v-1.149h-1.149v-1.293h-1.293v-1.149h-1.148v-1.293h-1.293v-1.149H6912.7v-1.293h-1.293v-1.149h-1.149v-1.149h-6.177v1.149h-1.149v1.149h-1.149v1.293h-2.441v1.149H6895.6v-1.149h-2.442v-1.293h-1.148v-1.149h-1.293v-1.149h-1.149V5845.9h-1.293v-1.149h-1.149v-1.293h-1.293v-1.149h-1.149v-1.293h-1.148v-1.149h-1.293v-6.177h1.293v-1.149h1.148v-1.293h1.149v-1.149h1.293v-6.033h-1.293v-1.293h-1.149v-1.149h-1.148v-1.293h-1.293v-1.149h-1.149v-1.293H6879.8v-1.149h-1.149v-1.293h-1.293v-1.149h-1.148V5813h-6.177v1.292Z" transform="translate(-6864 -5813)" fill="#009fe3" fill-rule="evenodd"/>
</svg>
