<svg xmlns="http://www.w3.org/2000/svg" width="47.994" height="47.965" viewBox="0 0 47.994 47.965">
  <path id="Trazado_14" data-name="Trazado 14" d="M4898.131,3576.1c7.392,1.174,15-7.7,17.373-11.168,6.2-9.091,5.691-10.777,9.725-18.749,7.931,7.918,7.067,27.206-8.309,33.9-8.956,3.885-20.8.769-24.359-4.721Zm-1.5-5.8a13.324,13.324,0,0,1-5.085-.944,9.146,9.146,0,0,1-5.152-6.366c-1.943-7.432,1.983-13.636,7.418-15.161-.256,10.561.958,15.835,8.012,21.608Zm-6.38-23.159c1.862-3.79,8.741-8.457,15.3-9.212,8.552-1,13.826,2.792,18.183,6.178-.311,1.915-2.657,7.5-3.723,8.659-2.32-.85-4.3-2.171-6.758-3.25-4.465-1.969-10.049-4.168-15.12-4.236C4894.543,3545.235,4892.938,3546.233,4890.253,3547.136Zm16.267,22.3c-1.848-1.254-3.561-1.227-5.436-2.954-4.937-4.546-6.083-12.409-5.3-19.045,6.623-1.956,18.749,4.856,23.456,7.149-1.848,5.57-8.04,13.043-11.3,15.767a14.406,14.406,0,0,1-9.806,3.79c-5.53.027-6.636-1.389-10.44-2.779.567,2.428,4.02,6.42,5.665,7.661,9.375,7.081,21.3,5.881,29.768-.54a26.292,26.292,0,0,0,6.083-7.257c9.644-17.71-6.056-38.94-25.965-34.84-16.59,3.426-23.2,22.714-16.563,31.522C4890.415,3572.858,4901.894,3573.856,4906.521,3569.432Z" transform="translate(-4884.132 -3535.872)" fill="#009fe3" fill-rule="evenodd"/>
</svg>
