<svg xmlns="http://www.w3.org/2000/svg" width="85" height="44.191" viewBox="0 0 85 44.191">
  <path id="Trazado_3" data-name="Trazado 3" d="M6664.607,4862a5.258,5.258,0,0,1,6.431,3.689,5.483,5.483,0,0,1-3.954,6.748C6660.021,4873.857,6658.07,4863.736,6664.607,4862Zm-46.179.052c6.694-1.845,9.436,8.119,3.163,10.175C6614.58,4874.543,6611.364,4864,6618.428,4862.049Zm47.022-16.552h4.745c1.739.9,5.06,8.855,5.692,11.07-3.743-.369-8.908-2-10.6-4.64Zm-8.751-3.585c3.8,0,8.646-.475,11.229.9l-5.272.264v9.7c0,3.531,10.491,6.01,13.443,6.59l-.106,6.483h-1.95c-1.318-1.9-.9-3-2.793-4.691a8.422,8.422,0,0,0-11.176.369c-2.742,2.794-.264,3.585-3.375,4.375Zm-48.814,23.88c-2.9.316-3.8-.633-5.325-1.9-5.376-4.533-7.221-4.639-5.324-7.907.158-.264,15.129-20.665,16.236-20.928Zm7.38-25.62c2.056-1,6.589-.475,9.12-.475,5.8,0,7.275.791,6.642-2.161-2.319-1.106-11.649-.368-15.234-.526l.738-3.269c5.272-.422,12.23-.053,17.712-.053,4.271,0,13.179-.738,16.237,1.159,4.428,2.795,3.637,7.328,3.637,13.654,0,5.271.369,12.124-.053,17.4h-26.147c-1.318-3-2.794-7.011-8.646-6.694-6.378.369-6.326,6.009-8.171,6.694-.791-1.37,1.055-8.646,1.477-10.859,2.372-12.7-1.582-10.227,15.656-10.227,7.644,0,10.491,1.055,9.963-2.636l-23.248-.053Zm-4.165,28.309c2.319,1.16,1.424,6.273,8.171,6.7a7.922,7.922,0,0,0,8.382-6.7h29.521c1.371.844,1.476,2.795,3.163,4.428a7.957,7.957,0,0,0,12.6-1.95c1.423-2.846-.264-2.478,5.693-2.478a94.16,94.16,0,0,0,.053-12.178c-.264-1.37-3.163-7.169-3.954-8.855-7.064-14.866-15.024-4.27-18.345-9.067-.738-1.106-1.476-5.113-6.906-6.853-2.636-.844-26.411-.422-31.1-.422-7.275,0-4.956-.9-10.016,5.641l-13.548,18.134c-3.11,4.955,2.161,7.8,4.48,9.7C6604.775,4869.008,6602.086,4868.48,6611.1,4868.48Z" transform="translate(-6593.855 -4831)" fill="#009fe3" fill-rule="evenodd"/>
</svg>
